<?xml version="1.0" encoding="UTF-8" standalone="no"?>
<!-- Generator: Adobe Illustrator 22.1.0, SVG Export Plug-In . SVG Version: 6.00 Build 0)  -->

<svg
   version="1.1"
   id="logo2bis"
   x="0px"
   y="0px"
   viewBox="0 0 141.7 141.7"
   style="enable-background:new 0 0 141.7 141.7;"
   xml:space="preserve"
   sodipodi:docname="logo_maintenance.svg"
   inkscape:version="1.2.1 (9c6d41e410, 2022-07-14)"
   xmlns:inkscape="http://www.inkscape.org/namespaces/inkscape"
   xmlns:sodipodi="http://sodipodi.sourceforge.net/DTD/sodipodi-0.dtd"
   xmlns="http://www.w3.org/2000/svg"
   xmlns:svg="http://www.w3.org/2000/svg"><defs
   id="defs21" /><sodipodi:namedview
   id="namedview19"
   pagecolor="#ffffff"
   bordercolor="#666666"
   borderopacity="1.0"
   inkscape:showpageshadow="2"
   inkscape:pageopacity="0.0"
   inkscape:pagecheckerboard="0"
   inkscape:deskcolor="#d1d1d1"
   showgrid="false"
   inkscape:zoom="3.330981"
   inkscape:cx="24.167055"
   inkscape:cy="76.854236"
   inkscape:current-layer="logo2bis" />
<style
   type="text/css"
   id="style2">
	.st0{fill:#B7B7B7;}
</style>
<path
   sodipodi:type="star"
   style="fill:#ffff00;fill-opacity:1;stroke:#000000;stroke-width:6.14846;stroke-linecap:round;stroke-miterlimit:23.5;stroke-dasharray:none;stroke-opacity:1"
   id="path1934"
   inkscape:flatsided="true"
   sodipodi:sides="3"
   sodipodi:cx="-102.28444"
   sodipodi:cy="16.006035"
   sodipodi:r1="90.470215"
   sodipodi:r2="45.235107"
   sodipodi:arg1="0.52359878"
   sodipodi:arg2="1.5707963"
   inkscape:rounded="0"
   inkscape:randomized="0"
   d="m -23.934935,61.241143 -156.699005,-10e-7 78.3495,-135.705322 z"
   inkscape:transform-center-y="-21.879632"
   transform="matrix(0.82799345,0,0,0.96737393,155.54084,78.732774)"
   inkscape:transform-center-x="1.2977222e-05" /><g
   id="g16"
   transform="matrix(0.55694925,0,0,0.55694925,30.672013,53.264323)">
	<g
   id="g14">
		<g
   id="g6">
			<polygon
   class="st0"
   points="98.2,118.3 98.2,97.1 116.5,107.7 125.6,102.5 125.6,102.4 125.6,91.9 107.4,81.4 125.6,70.9 125.6,49.8 80,76.1 80,128.8 "
   id="polygon4" />
		</g>
		<g
   id="g12">
			<polygon
   class="st0"
   points="79.9,34.1 98.2,23.5 116.4,34.1 70.8,60.4 25.2,34.1 43.4,23.5 61.6,34 61.6,13 70.7,7.8 70.8,7.7 79.9,13 "
   id="polygon8" />
			<polygon
   class="st0"
   points="16,70.9 34.3,81.4 16,92 16,102.4 16.1,102.5 25.2,107.7 43.4,97.2 43.4,118.3 61.6,128.8 61.6,76.1 16,49.8 "
   id="polygon10" />
		</g>
	</g>
</g>
<text
   xml:space="preserve"
   style="font-style:normal;font-weight:normal;font-size:129.12px;line-height:125%;font-family:Sans;letter-spacing:0px;word-spacing:0px;fill:#000000;fill-opacity:1;stroke:none;stroke-width:3.228px;stroke-linecap:butt;stroke-linejoin:miter;stroke-opacity:1"
   x="51.967426"
   y="122.05103"
   id="text1938"><tspan
     sodipodi:role="line"
     id="tspan1936"
     x="51.967426"
     y="122.05103"
     style="stroke-width:3.228px">!</tspan></text></svg>
