<?xml version="1.0" encoding="UTF-8" standalone="no"?>
<!-- Generator: Adobe Illustrator 22.1.0, SVG Export Plug-In . SVG Version: 6.00 Build 0)  -->

<svg
   version="1.1"
   id="logo2bis"
   x="0px"
   y="0px"
   viewBox="0 0 141.7 141.7"
   style="enable-background:new 0 0 141.7 141.7;"
   xml:space="preserve"
   sodipodi:docname="logo_not_found.svg"
   inkscape:version="1.2.1 (9c6d41e410, 2022-07-14)"
   xmlns:inkscape="http://www.inkscape.org/namespaces/inkscape"
   xmlns:sodipodi="http://sodipodi.sourceforge.net/DTD/sodipodi-0.dtd"
   xmlns="http://www.w3.org/2000/svg"
   xmlns:svg="http://www.w3.org/2000/svg"><defs
   id="defs21" /><sodipodi:namedview
   id="namedview19"
   pagecolor="#ffffff"
   bordercolor="#666666"
   borderopacity="1.0"
   inkscape:showpageshadow="2"
   inkscape:pageopacity="0.0"
   inkscape:pagecheckerboard="0"
   inkscape:deskcolor="#d1d1d1"
   showgrid="false"
   inkscape:zoom="3.330981"
   inkscape:cx="-25.668114"
   inkscape:cy="76.854236"
   inkscape:current-layer="logo2bis" />
<style
   type="text/css"
   id="style2">
	.st0{fill:#B7B7B7;}
</style>
<circle
   style="fill:none;stroke:#2f91cd;stroke-width:4.8747;stroke-linecap:round;stroke-miterlimit:23.5;stroke-dasharray:none;stroke-opacity:1"
   id="path339"
   cx="70.849998"
   cy="70.849998"
   r="68.06134" /><g
   id="g16"
   transform="translate(0.04999847,2.5999985)">
	<g
   id="g14">
		<g
   id="g6">
			<polygon
   class="st0"
   points="125.6,49.8 80,76.1 80,76.1 80,128.8 98.2,118.3 98.2,97.1 116.5,107.7 125.6,102.5 125.6,102.4 125.6,91.9 107.4,81.4 125.6,70.9 "
   id="polygon4" />
		</g>
		<g
   id="g12">
			<polygon
   class="st0"
   points="61.6,13 70.7,7.8 70.8,7.7 79.9,13 79.9,34.1 98.2,23.5 116.4,34.1 70.8,60.4 25.2,34.1 43.4,23.5 61.6,34 "
   id="polygon8" />
			<polygon
   class="st0"
   points="61.6,128.8 61.6,76.1 61.6,76.1 16,49.8 16,70.9 34.3,81.4 16,92 16,102.4 16.1,102.5 25.2,107.7 43.4,97.2 43.4,118.3 "
   id="polygon10" />
		</g>
	</g>
</g>
<text
   xml:space="preserve"
   style="font-style:normal;font-weight:normal;font-size:126.438px;line-height:125%;font-family:Sans;letter-spacing:0px;word-spacing:0px;fill:#2f91cd;fill-opacity:1;stroke:none;stroke-width:3.16093px;stroke-linecap:butt;stroke-linejoin:miter;stroke-opacity:1"
   x="35.443653"
   y="114.99217"
   id="text181"><tspan
     id="tspan179"
     x="35.443653"
     y="114.99217"
     sodipodi:role="line"
     style="fill:#2f91cd;stroke-width:3.16093px;fill-opacity:1">?</tspan></text></svg>
